<svg width="14" height="16" viewBox="0 0 14 16" fill="none" xmlns="http://www.w3.org/2000/svg">
<path d="M4.58301 11.375C4.05801 11.375 3.61426 11.1938 3.25176 10.8313C2.88926 10.4688 2.70801 10.025 2.70801 9.5C2.70801 8.975 2.88926 8.53125 3.25176 8.16875C3.61426 7.80625 4.05801 7.625 4.58301 7.625C5.10801 7.625 5.55176 7.80625 5.91426 8.16875C6.27676 8.53125 6.45801 8.975 6.45801 9.5C6.45801 10.025 6.27676 10.4688 5.91426 10.8313C5.55176 11.1938 5.10801 11.375 4.58301 11.375ZM1.58301 15.5C1.17051 15.5 0.817383 15.3531 0.523633 15.0594C0.229883 14.7656 0.0830078 14.4125 0.0830078 14V3.5C0.0830078 3.0875 0.229883 2.73438 0.523633 2.44063C0.817383 2.14688 1.17051 2 1.58301 2H2.33301V0.5H3.83301V2H9.83301V0.5H11.333V2H12.083C12.4955 2 12.8486 2.14688 13.1424 2.44063C13.4361 2.73438 13.583 3.0875 13.583 3.5V14C13.583 14.4125 13.4361 14.7656 13.1424 15.0594C12.8486 15.3531 12.4955 15.5 12.083 15.5H1.58301ZM1.58301 14H12.083V6.5H1.58301V14Z" fill="#49454F"/>
</svg>
