<svg width="63" height="63" viewBox="0 0 63 63" fill="none" xmlns="http://www.w3.org/2000/svg">
<path d="M31.6805 57.9434C46.1693 57.9434 57.9148 46.1979 57.9148 31.7091C57.9148 17.2203 46.1693 5.47485 31.6805 5.47485C17.1918 5.47485 5.44629 17.2203 5.44629 31.7091C5.44629 46.1979 17.1918 57.9434 31.6805 57.9434Z" fill="#E57F39"/>
<path d="M31.5 62.6638C14.4341 62.6638 0.5 48.7751 0.5 31.6638C0.5 14.5525 14.3887 0.663818 31.5 0.663818C48.6113 0.663818 62.5 14.5525 62.5 31.6638C62.5 48.7751 48.6113 62.6638 31.5 62.6638ZM31.5 6.65503C17.702 6.65503 6.49122 17.8659 6.49122 31.6638C6.49122 45.4618 17.702 56.6726 31.5 56.6726C45.2979 56.6726 56.5088 45.4618 56.5088 31.6638C56.5088 17.8659 45.2526 6.65503 31.5 6.65503Z" fill="#D76112"/>
<path d="M31.6368 60.3034C31.1375 60.3034 30.7744 59.8949 30.7744 59.441C30.7744 58.9417 31.1829 58.5786 31.6368 58.5786C34.4962 58.5786 37.3103 58.1247 39.9882 57.217C40.442 57.0808 40.9413 57.3077 41.0775 57.7616C41.2136 58.2155 40.9867 58.7148 40.5328 58.8509C37.6734 59.8041 34.6778 60.258 31.6368 60.258V60.3034ZM23.013 58.9871C23.013 58.9871 22.8315 58.9871 22.7407 58.9871C19.8813 58.0793 17.158 56.7177 14.707 54.9022C14.2985 54.6299 14.2078 54.0852 14.5255 53.6767C14.7978 53.2682 15.3425 53.1774 15.751 53.4952C18.0658 55.1745 20.6075 56.4454 23.3308 57.3077C23.7846 57.4439 24.057 57.9432 23.8754 58.3971C23.7393 58.7602 23.4215 58.9871 23.0584 58.9871H23.013ZM48.0672 54.9476C47.7949 54.9476 47.5226 54.8114 47.341 54.5845C47.0687 54.176 47.1595 53.6313 47.5226 53.359C49.8373 51.6796 51.8344 49.6826 53.5138 47.3678C53.7861 46.9593 54.3308 46.8685 54.7393 47.1862C55.1477 47.4586 55.1931 48.0032 54.9208 48.4117C53.1507 50.8627 51.0174 52.9959 48.5665 54.8114C48.4303 54.9476 48.2488 54.993 48.0672 54.993V54.9476ZM8.98815 48.8656C8.71583 48.8656 8.4435 48.7294 8.26195 48.5025C6.44643 46.0515 5.08479 43.3736 4.13164 40.5142C3.99547 40.0603 4.22241 39.561 4.67629 39.4249C5.13017 39.2433 5.62944 39.5157 5.7656 39.9695C6.67336 42.6474 7.94423 45.1892 9.66897 47.5039C9.9413 47.9124 9.85052 48.4571 9.48742 48.7294C9.35126 48.8656 9.1697 48.911 8.98815 48.911V48.8656ZM58.1887 40.9681C58.1887 40.9681 58.0072 40.9681 57.9164 40.9681C57.4625 40.8319 57.1902 40.3326 57.3718 39.8788C58.2341 37.2009 58.688 34.3868 58.688 31.5274V31.2097C58.688 30.7104 59.0511 30.3473 59.5504 30.3019C59.9589 30.2111 60.4128 30.665 60.4581 31.1643V31.5274C60.4581 34.5684 60.0043 37.564 59.0511 40.4234C58.915 40.7865 58.5972 41.0135 58.2341 41.0135L58.1887 40.9681ZM3.58698 32.3897C3.08771 32.3897 2.72461 32.072 2.72461 31.6181H3.58698L2.72461 31.482C2.72461 28.441 3.17849 25.5361 4.08625 22.6767C4.22241 22.2228 4.72168 21.9505 5.17556 22.1321C5.62944 22.3136 5.90177 22.7675 5.7656 23.2214C4.90323 25.8539 4.49474 28.6225 4.49474 31.4366C4.49474 31.9359 4.08625 32.3897 3.63237 32.3897H3.58698ZM58.098 23.3575C57.7349 23.3575 57.3718 23.1306 57.281 22.7675C56.3732 20.0896 55.057 17.5479 53.3322 15.2785C53.0599 14.87 53.1053 14.3253 53.5138 14.053C53.8769 13.7807 54.4669 13.826 54.7393 14.2345C56.5548 16.6855 57.9618 19.3634 58.915 22.2228C59.0511 22.6767 58.8242 23.176 58.3703 23.3121C58.2795 23.3121 58.1887 23.3121 58.098 23.3121V23.3575ZM8.8066 16.0047C8.8066 16.0047 8.4435 15.9593 8.30733 15.8231C7.89884 15.5508 7.80806 15.0061 8.12578 14.5976C9.89591 12.1467 12.0291 9.96807 14.4347 8.15255C14.8432 7.88022 15.3879 7.92561 15.6602 8.3341C15.9325 8.6972 15.8871 9.28725 15.4786 9.55958C13.2092 11.2389 11.1668 13.2814 9.53281 15.5962C9.35126 15.8231 9.07893 15.9593 8.8066 15.9593V16.0047ZM47.7949 9.51419C47.7949 9.51419 47.4318 9.4688 47.2956 9.33264C44.9808 7.69867 42.4391 6.4278 39.7158 5.56543C39.262 5.42927 38.9896 4.93 39.1258 4.47612C39.262 4.02224 39.7612 3.74991 40.2151 3.88608C43.1199 4.79384 45.7978 6.15548 48.2942 7.92561C48.7027 8.19794 48.7934 8.74259 48.4757 9.15108C48.2942 9.37802 48.0218 9.51419 47.7495 9.51419H47.7949ZM22.6953 5.74698C22.3322 5.74698 21.9691 5.52004 21.8783 5.15694C21.7422 4.70306 21.9691 4.20379 22.423 4.06763C25.2824 3.11448 28.2781 2.61521 31.319 2.56982C31.8183 2.56982 32.1814 2.93293 32.1814 3.4322C32.1814 3.93146 31.8183 4.29457 31.319 4.29457C28.4596 4.29457 25.6455 4.79384 22.9677 5.7016C22.8769 5.7016 22.7861 5.7016 22.6953 5.7016V5.74698Z" fill="#FFB064"/>
<path d="M30.5007 25.8093L30.0015 29.0319C31.0454 28.4418 32.0893 28.351 33.224 28.351C38.1713 28.351 41.0308 32.2998 41.0308 36.2485C41.0308 40.6512 37.5813 44.7815 31.9985 44.7815C27.4597 44.7815 23.8741 42.2398 23.0117 38.0187H29.0483C29.6838 38.9264 30.6823 39.4711 31.817 39.4711C33.5417 39.4711 34.9941 38.1095 34.9941 36.3393C34.9941 34.5692 33.5417 33.2529 31.7716 33.2529C30.2738 33.2529 29.2753 33.9338 28.6852 35.2954L23.8287 34.0699L25.8712 20.7712H38.8521V25.8093H30.4553H30.5007Z" fill="#E0E0E0"/>
<g style="mix-blend-mode:screen" opacity="0.29">
<path d="M1.27051 24.6283L38.3979 61.7556C48.9279 59.3501 57.4155 51.6341 60.8196 41.6034L21.5589 2.29736C11.4374 5.70146 3.72146 14.1436 1.27051 24.6283Z" fill="#E0E0E0"/>
</g>
</svg>
