<svg width="15" height="14" viewBox="0 0 15 14" fill="none" xmlns="http://www.w3.org/2000/svg">
<path fill-rule="evenodd" clip-rule="evenodd" d="M2.61918 3.34535C3.68839 2.01681 5.32792 1.16667 7.16602 1.16667C7.4499 1.16667 7.72897 1.18694 8.00197 1.22612L8.49804 2.21816L6.59948 4.1167L4.55782 4.40837L3.5572 5.40899L2.61918 3.34535ZM1.87798 4.53409C1.52811 5.2831 1.33268 6.1187 1.33268 7C1.33268 9.8735 3.41038 12.2617 6.14542 12.7444L6.46516 12.2263L4.68856 9.75878L5.90143 8.18658L5.32477 7.89826L3.23067 8.24724L2.82108 6.60893L1.87798 4.53409ZM4.02036 6.59571L4.10128 6.91942L5.50719 6.68508L6.67804 7.27051L8.78566 6.97776L12.575 9.18828C12.8487 8.51254 12.9993 7.77389 12.9993 7C12.9993 4.61789 11.5715 2.56928 9.52502 1.66332L9.91756 2.44852L7.14945 5.21664L5.10779 5.5083L4.02036 6.59571ZM12.0302 10.2211C11.0373 11.7174 9.37249 12.7291 7.46616 12.8257L7.86687 12.1765L6.14347 9.78289L7.23236 8.37138L8.54642 8.18891L12.0302 10.2211ZM7.16602 0C3.30002 0 0.166016 3.13401 0.166016 7C0.166016 10.866 3.30002 14 7.16602 14C11.032 14 14.166 10.866 14.166 7C14.166 3.13401 11.032 0 7.16602 0Z" fill="#49454F"/>
</svg>
