<svg width="55" height="60" viewBox="0 0 55 60" fill="none" xmlns="http://www.w3.org/2000/svg">
<g clip-path="url(#clip0_531_3368)">
<path d="M52.8575 39.1228V20.224C52.8575 17.0257 51.1546 14.0352 48.372 12.4153L32.0084 2.98665C29.2258 1.36675 25.7786 1.36675 22.996 2.98665L6.67393 12.4153C3.89129 14.0352 2.18848 16.9842 2.18848 20.224V39.1228C2.18848 42.321 3.89129 45.3116 6.67393 46.9315L23.0375 56.3601C25.8202 57.98 29.2673 57.98 32.0499 56.3601L48.4135 46.9315C51.1962 45.3116 52.899 42.3625 52.899 39.1228H52.8575Z" fill="#E8D480"/>
<path d="M27.5212 59.1438C25.6938 59.1438 23.8663 58.687 22.2051 57.7316L5.84148 48.303C2.56046 46.4339 0.525391 42.9034 0.525391 39.1236V20.2248C0.525391 16.4451 2.56046 12.9561 5.84148 11.0454L22.2051 1.61682C25.4861 -0.293823 29.5147 -0.293823 32.7957 1.61682L49.1593 11.0454C52.4403 12.9145 54.4754 16.4451 54.4754 20.2248V39.1236C54.4754 42.9034 52.4403 46.3924 49.1593 48.303L32.7957 57.7316C31.176 58.687 29.3486 59.1438 27.4796 59.1438H27.5212ZM27.5212 3.36132C26.2337 3.36132 24.9462 3.69361 23.8248 4.35818L7.46123 13.7868C5.17697 15.1159 3.76488 17.5666 3.76488 20.2248V39.1236C3.76488 41.7819 5.17697 44.2325 7.46123 45.5616L23.8248 54.9903C26.1091 56.3194 28.9748 56.3194 31.259 54.9903L47.6226 45.5616C49.9069 44.2325 51.319 41.7819 51.319 39.1236V20.2248C51.319 17.5666 49.9069 15.1159 47.6226 13.7868L31.259 4.35818C30.0961 3.69361 28.8502 3.36132 27.5627 3.36132H27.5212Z" fill="#D7BA43"/>
<path d="M16.9337 41.989C19.8468 41.989 22.2083 39.6273 22.2083 36.714C22.2083 33.8007 19.8468 31.439 16.9337 31.439C14.0207 31.439 11.6592 33.8007 11.6592 36.714C11.6592 39.6273 14.0207 41.989 16.9337 41.989Z" fill="#E0E0E0"/>
<path d="M16.9327 43.319C13.2779 43.319 10.3291 40.3699 10.3291 36.7148C10.3291 33.0596 13.2779 30.1106 16.9327 30.1106C20.5875 30.1106 23.5363 33.0596 23.5363 36.7148C23.5363 40.3699 20.5875 43.319 16.9327 43.319ZM16.9327 32.7689C14.7315 32.7689 12.9871 34.5549 12.9871 36.7148C12.9871 38.8746 14.773 40.6607 16.9327 40.6607C19.0923 40.6607 20.8782 38.8746 20.8782 36.7148C20.8782 34.5549 19.0923 32.7689 16.9327 32.7689Z" fill="#D7BA43"/>
<path d="M27.5236 27.908C30.4366 27.908 32.7981 25.5463 32.7981 22.633C32.7981 19.7196 30.4366 17.3579 27.5236 17.3579C24.6105 17.3579 22.249 19.7196 22.249 22.633C22.249 25.5463 24.6105 27.908 27.5236 27.908Z" fill="#E0E0E0"/>
<path d="M27.5225 29.2379C23.8677 29.2379 20.9189 26.2889 20.9189 22.6337C20.9189 18.9786 23.8677 16.0295 27.5225 16.0295C31.1773 16.0295 34.1261 18.9786 34.1261 22.6337C34.1261 26.2889 31.1773 29.2379 27.5225 29.2379ZM27.5225 18.6878C25.3213 18.6878 23.577 20.4739 23.577 22.6337C23.577 24.7936 25.3629 26.5796 27.5225 26.5796C29.6822 26.5796 31.4681 24.7936 31.4681 22.6337C31.4681 20.4739 29.6822 18.6878 27.5225 18.6878Z" fill="#D7BA43"/>
<path d="M38.0714 41.989C40.9845 41.989 43.346 39.6273 43.346 36.714C43.346 33.8007 40.9845 31.439 38.0714 31.439C35.1584 31.439 32.7969 33.8007 32.7969 36.714C32.7969 39.6273 35.1584 41.989 38.0714 41.989Z" fill="#E0E0E0"/>
<path d="M38.0704 43.319C34.4156 43.319 31.4668 40.3699 31.4668 36.7148C31.4668 33.0596 34.4156 30.1106 38.0704 30.1106C41.7252 30.1106 44.674 33.0596 44.674 36.7148C44.674 40.3699 41.7252 43.319 38.0704 43.319ZM38.0704 32.7689C35.8692 32.7689 34.1248 34.5549 34.1248 36.7148C34.1248 38.8746 35.9107 40.6607 38.0704 40.6607C40.23 40.6607 42.0159 38.8746 42.0159 36.7148C42.0159 34.5549 40.23 32.7689 38.0704 32.7689Z" fill="#D7BA43"/>
<g style="mix-blend-mode:screen" opacity="0.3">
<path d="M21.8082 1.83582L5.55078 11.2229L32.505 57.9133L48.7624 48.5262L21.8082 1.83582Z" fill="white"/>
</g>
</g>
<defs>
<clipPath id="clip0_531_3368">
<rect width="53.95" height="58.96" fill="white" transform="translate(0.525391 0.183838)"/>
</clipPath>
</defs>
</svg>
