<svg width="71" height="68" viewBox="0 0 71 68" fill="none" xmlns="http://www.w3.org/2000/svg">
<path d="M10.9093 64.6876L9.84875 56.601L1.8947 55.6288C0.436453 55.452 -0.535709 53.5961 0.392264 52.6681L13.649 39.4114L27.1709 52.9333L13.9142 66.19C13.0304 67.0738 11.1302 66.1458 10.9535 64.6876H10.9093Z" fill="#7DA68D"/>
<path d="M60.0917 64.6876L61.1522 56.601L69.1063 55.6288C70.5645 55.452 71.5367 53.5961 70.6087 52.6681L57.352 39.4114L43.8301 52.9333L57.0868 66.19C57.9706 67.0738 59.8707 66.1458 60.0475 64.6876H60.0917Z" fill="#7DA68D"/>
<path d="M64.4538 29.1954L39.9565 4.69822C37.4888 2.23048 33.4878 2.23048 31.02 4.69822L6.52281 29.1955C4.05507 31.6632 4.05507 35.6642 6.52281 38.1319L31.02 62.6292C33.4878 65.0969 37.4888 65.0969 39.9565 62.6292L64.4538 38.1319C66.9215 35.6642 66.9215 31.6632 64.4538 29.1954Z" fill="#88B598"/>
<path d="M28.5425 30.3503L28.2331 32.2946C28.8518 31.9411 29.4704 31.8528 30.1775 31.8528C33.1381 31.8528 34.8615 34.239 34.8615 36.6252C34.8615 39.2765 32.7846 41.7511 29.4262 41.7511C26.6865 41.7511 24.5212 40.2487 24.0352 37.6857H27.6587C28.0564 38.2602 28.6308 38.5695 29.3379 38.5695C30.3542 38.5695 31.238 37.7299 31.238 36.7136C31.238 35.6972 30.3984 34.8576 29.2937 34.8576C28.4099 34.8576 27.7912 35.2553 27.4377 36.0949L24.5212 35.3879L25.7585 27.3896H33.58V30.4387H28.5425V30.3503Z" fill="#E0E0E0"/>
<path d="M46.6606 36.4045C46.6606 39.6745 44.2744 41.7072 41.4463 41.7072C38.6181 41.7072 36.1436 39.6745 36.1436 36.4045V32.2507C36.1436 28.8923 38.7949 27.0364 41.4463 27.0364C44.2744 27.0364 46.7048 29.1133 46.7048 32.2065V36.4045H46.6606ZM43.0813 32.2507C43.0813 31.0134 42.551 30.218 41.4021 30.218C40.3415 30.218 39.7229 31.0576 39.7229 32.2507V36.4929C39.7229 37.7302 40.2973 38.5256 41.4021 38.5256C42.551 38.5256 43.0813 37.7302 43.0813 36.4929V32.2507Z" fill="#E0E0E0"/>
<g style="mix-blend-mode:screen" opacity="0.31">
<path d="M23.178 12.5935L7.92969 27.8418L41.3634 61.2755L56.6117 46.0272L23.178 12.5935Z" fill="#E0E0E0"/>
</g>
<path d="M35.6126 58.279C33.6683 58.279 31.8566 57.5278 30.4867 56.1579L12.8994 38.5706C11.5295 37.2007 10.7783 35.389 10.7783 33.4447C10.7783 31.5003 11.5295 29.6886 12.8994 28.3187L30.4867 10.7314C33.3148 7.90332 37.9105 7.90332 40.7386 10.7314L58.3259 28.3187C59.6957 29.6886 60.4469 31.5003 60.4469 33.4447C60.4469 35.389 59.6957 37.2007 58.3259 38.5706L40.7386 56.1579C39.3687 57.5278 37.557 58.279 35.6126 58.279ZM35.6126 10.4663C34.2428 10.4663 32.8729 10.9966 31.8124 12.0129L14.2251 29.6002C13.2087 30.6166 12.6343 31.9422 12.6343 33.4005C12.6343 34.8587 13.2087 36.1844 14.2251 37.2007L31.8124 54.788C33.8451 56.8207 37.3802 56.8207 39.4129 54.788L57.0002 37.2007C58.0165 36.1844 58.591 34.8145 58.591 33.4005C58.591 31.9864 58.0165 30.6166 57.0002 29.6002L39.4129 12.0129C38.3524 10.9524 36.9825 10.4663 35.6126 10.4663Z" fill="#A5D6B7"/>
</svg>
